<svg xmlns="http://www.w3.org/2000/svg" viewBox="0 0 577.21 235.41"><g id="Layer_2" data-name="Layer 2"><g id="Layer_1-2" data-name="Layer 1"><line x1="68.41" y1="2.19" x2="66.62"/><polygon points="288.78 40.6 223.66 119.99 194.35 84.27 230.17 40.6 288.78 40.6" fill="#fd9564"/><polygon points="194.35 155.72 130.05 234.1 71.45 234.1 165.05 119.99 194.35 155.72" fill="#fd9564"/><line x1="71.45" y1="234.1" x2="70.38" y2="235.41"/><polygon points="269.7 176.13 211.1 176.13 194.35 155.72 165.05 119.99 68.41 2.19 127.02 2.19 194.35 84.27 223.66 119.99 269.7 176.13" fill="#1c2743"/><path d="M257.59,121.94a28.45,28.45,0,0,1,28-28.31c10.21,0,15.85,5.11,19.17,10.75l-8.42,5.74c-2.51-4-5.56-7.08-11.65-7.08a14.88,14.88,0,0,0-10.39,4.66,20.52,20.52,0,0,0-5.82,14.15c0,7.44,5.1,11.83,11.19,11.83,4.75,0,8.25-2,12.1-5.29l5.73,7.08c-5,4.57-10.21,7.52-18.18,7.52C267.08,143,257.59,134.84,257.59,121.94Z" fill="#1c2743"/><path d="M321.91,76.52h10.83l-6.53,24.1c3.67-3.67,8.24-7,14.33-7,8.69,0,14.42,5.47,14.42,14.16a36,36,0,0,1-1.43,8.33l-6.9,25.8H335.79l7.08-26.25a22.91,22.91,0,0,0,.63-4.75c0-4.75-3.05-7.43-8.16-7.43-6.09,0-11.11,4.74-13,11.82l-7.16,26.61H304.35Z" fill="#1c2743"/><path d="M360.33,130a15.82,15.82,0,0,1,4.48-11.37c3.85-3.68,9.41-5.74,16.22-5.74a47.77,47.77,0,0,1,14.69,2.33l.27-.8a17.47,17.47,0,0,0,.53-4c0-4.39-2.95-7.16-10.48-7.16a34.77,34.77,0,0,0-12.9,2.6l-1.79-8.78A46.28,46.28,0,0,1,388.19,94c12.46,0,18.91,5.29,18.91,14.6a26.09,26.09,0,0,1-1,6.9L399,141.92H388.55l1.61-6.27a20,20,0,0,1-15.58,7.25C366.42,142.9,360.33,137.8,360.33,130Zm33.15-6.18.63-2.15a39.21,39.21,0,0,0-11.47-1.79c-3.94,0-7.08,1.08-9.14,3.14a7.91,7.91,0,0,0-2.33,5.73c0,3.85,3,6.36,7.71,6.36A15.68,15.68,0,0,0,393.48,123.82Z" fill="#1c2743"/><path d="M424.56,94.62H435.4l-1.61,6c3.67-3.67,8.24-7,14.33-7,8.69,0,14.42,5.47,14.42,14.16a36,36,0,0,1-1.43,8.33l-6.9,25.8H443.37l7.08-26.25a22.91,22.91,0,0,0,.63-4.75c0-4.75-3.05-7.43-8.15-7.43-6.1,0-11.11,4.74-13,11.82l-7.17,26.61H411.93Z" fill="#1c2743"/><path d="M464.6,149.18l6-7.53a29,29,0,0,0,17.65,6c5.11,0,8.78-1.43,11.56-4.21,2.42-2.42,3.76-5.37,4.93-9.58l.8-2.87c-5,4.57-9.49,7.17-16.21,7.17-9.32,0-18.19-6.1-18.19-17.11a27.59,27.59,0,0,1,8.24-19.71,25.52,25.52,0,0,1,17.92-7.71c9,0,13,4.75,15.59,9.5l2.24-8.51H526l-10.39,39.06c-2.42,8.6-4.39,12.45-8.07,16.12-4.39,4.39-10.12,6.63-18.63,6.63C479.56,156.43,470.69,153.74,464.6,149.18ZM505,124.36a15,15,0,0,0,4.84-10.93c0-6.09-4.39-10.57-11.46-10.57a15.81,15.81,0,0,0-11,4.66,16.09,16.09,0,0,0-4.93,11.64c0,6.81,4.84,10.13,10.93,10.13A16.38,16.38,0,0,0,505,124.36Z" fill="#1c2743"/><path d="M540.74,122c0,7.17,4.13,12.09,12.1,12.09,4.57,0,8.15-1.52,12.36-4.47l5.11,6.8C565.74,140.31,560,143,551.76,143c-13.17,0-21.32-8.15-21.32-20.69a29.65,29.65,0,0,1,8.69-20.6,26.55,26.55,0,0,1,19.17-8.07c12.19,0,18.91,8.07,18.91,18.37a26.33,26.33,0,0,1-2.07,10Zm1.17-7.17h24.55a11.68,11.68,0,0,0,.44-3.31c0-4.93-2.86-9-9.4-9a15.28,15.28,0,0,0-10.93,4.66A19.12,19.12,0,0,0,541.91,114.86Z" fill="#1c2743"/><path d="M0,94.62H11l.89,32.25L31.08,94.44h9.23L42.1,127,60.56,94.62H71.49L43.18,142.28H33.41l-1.88-32.34L12.18,142.28H2.6Z" fill="#1c2743"/><path d="M81.07,122c0,7.17,4.12,12.09,12.09,12.09,4.57,0,8.16-1.52,12.37-4.47l5.1,6.8A27.24,27.24,0,0,1,92.09,143c-13.17,0-21.32-8.15-21.32-20.69a29.6,29.6,0,0,1,8.69-20.6,26.52,26.52,0,0,1,19.17-8.07c12.18,0,18.9,8.07,18.9,18.37a26.51,26.51,0,0,1-2.06,10Zm1.16-7.17h24.55a11.3,11.3,0,0,0,.45-3.31c0-4.93-2.87-9-9.41-9a15.3,15.3,0,0,0-10.93,4.66A19.23,19.23,0,0,0,82.23,114.86Z" fill="#1c2743"/></g></g></svg>