<svg id="Layer_1" data-name="Layer 1" xmlns="http://www.w3.org/2000/svg" viewBox="0 0 1037.2 350.25"><path d="M56.24,244.6c14.26,2.8,24.54,80.84,58.88,75.24,27.11-1.41,44.17-44.4,48.37-57.25,0-.23,0-.23.24-.47,1.16-3,4.2-13.78,8.41-13.78s5.84,5.37,8.64,13.78c4.21,12.85,21.5,55.61,48.6,57.25,34.35,5.84,44.4-72.9,58.65-75.71,5.61,0,12.85,6.55,11.22,18.93C290.6,329.88,193.63,447,172.14,447S55.07,337.13,45,262.59c-1.64-12.38,5.6-18,11.21-18" transform="translate(-44.76 -115.15)" fill="#fff"/><path d="M171,115.15c58.88,0,108.65,40,123.84,94.63-15.42.94-26.64,5.14-33.65,12.85-7.48,8.18-16.59,27.34-27.1,57.48-1.41,1.87-2.82,2.81-4.21,2.81-2.1,0-3-1.17-4.21-2.81-.93-.93-10.28-25.93-20.32-46-6.78-11.68-11.92-18.22-16.59-21.49-5.84-4.44-11.22-6.78-16.36-6.78a26.4,26.4,0,0,0-16.12,4.91c-5.84,3.73-12.39,11.21-19.63,23.83-10.05,20.09-19.39,45.1-20.09,46-1.17,1.64-1.87,2.8-4,2.8q-2.1,0-4.2-2.8c-10.52-30.14-19.63-49.3-27.11-57.48-7-7.71-18.22-11.92-33.88-12.85,14.72-54.91,64.49-95.1,123.61-95.1" transform="translate(-44.76 -115.15)" fill="#fff"/><path d="M128,418.91a82.65,82.65,0,0,0,6.77,8.17c-11.45,3-18.69,7.25-18.69,11.92,0,8.88,25.23,16.12,56.08,16.12,31.07,0,56.08-7.24,56.08-16.12,0-5.14-8-9.58-20.57-12.38,3.51-3,6.31-5.85,8.41-7.95,15.19,4.91,25,12.15,25,20.33,0,14.49-30.85,26.4-68.93,26.4s-68.93-11.68-68.93-26.17c0-8.17,9.58-15.42,24.77-20.32" transform="translate(-44.76 -115.15)" fill="#fff"/><path d="M710.25,368.9a47,47,0,0,0-7.94.71,44.17,44.17,0,0,0-7,1.63l1.17-3.74V351.38c0-4.91-2.57-7.48-7.48-7.48a8.07,8.07,0,0,0-5.61,1.87,7.68,7.68,0,0,0-1.87,5.61v79.21a7.68,7.68,0,0,0,1.87,5.61c1.4,1.4,3.27,1.87,5.84,1.87a7.48,7.48,0,0,0,5.38-1.87,8.52,8.52,0,0,0,1.86-5.61v-45.1a20.59,20.59,0,0,0,2.34-.46c1.17-.24,2.57-.47,4.21-.94a42.56,42.56,0,0,1,6.07-.47A13.9,13.9,0,0,1,715.4,385a9.56,9.56,0,0,1,4.44,4.2,10,10,0,0,1,1.64,5.84v36a7.69,7.69,0,0,0,1.86,5.6c1.17,1.41,3,1.87,5.61,1.87a7.68,7.68,0,0,0,5.61-1.87c1.4-1.4,1.87-3.27,1.87-5.6V394.61a28.11,28.11,0,0,0-3.27-13.32,25.72,25.72,0,0,0-9.35-9.35,31.27,31.27,0,0,0-13.55-3m-93.93,26.41v18.22a24.05,24.05,0,0,0,3.51,12.85,26.11,26.11,0,0,0,9.58,9.35,28.31,28.31,0,0,0,14,3.5,35.56,35.56,0,0,0,11-1.4,29.91,29.91,0,0,0,7.71-4,6.67,6.67,0,0,0,2.8-5.61,7.52,7.52,0,0,0-1.87-4.9,5.25,5.25,0,0,0-4-2.11h-2.34a4.5,4.5,0,0,0-1.87.47,3.81,3.81,0,0,1-1.16.24,28.16,28.16,0,0,1-4.68,1.86,22.13,22.13,0,0,1-5.84.7,12.8,12.8,0,0,1-6.07-1.4,10.89,10.89,0,0,1-4.44-4.2,10.48,10.48,0,0,1-1.64-5.84V395.54a9.56,9.56,0,0,1,1.64-5.84,12,12,0,0,1,4.44-4,13.59,13.59,0,0,1,6.07-1.41A20.84,20.84,0,0,1,649,385a38.69,38.69,0,0,1,4.91,1.63,3.33,3.33,0,0,1,1.4.47c.47.23,1.17.23,1.64.47a7.59,7.59,0,0,0,2.33,0,5.19,5.19,0,0,0,4-2.11,7.57,7.57,0,0,0,1.87-4.9,7.15,7.15,0,0,0-2.81-5.61,32.06,32.06,0,0,0-32.71-2.1,25.1,25.1,0,0,0-9.81,9.34,25.52,25.52,0,0,0-3.51,13.09m-17.31-10c5.14,0,7.48-2.34,7.48-7.48a6.63,6.63,0,0,0-1.17-4,7.32,7.32,0,0,0-3.27-2.57,26.76,26.76,0,0,0-5.38-1.17,57.18,57.18,0,0,0-6.54-.46,36.6,36.6,0,0,0-11,1.63,37.23,37.23,0,0,0-9.81,4.21A10,10,0,0,0,566.5,378a5.55,5.55,0,0,0-1.17,3.27v50a7.68,7.68,0,0,0,1.87,5.61c1.4,1.4,3.27,1.87,5.84,1.87a7.48,7.48,0,0,0,5.38-1.87,8.53,8.53,0,0,0,1.87-5.61V387.83a13.72,13.72,0,0,1,4.44-2.57,14.48,14.48,0,0,1,5.37-.94,56.32,56.32,0,0,1,8.88.94M519.3,427.09c-3.27,0-5.84-.71-7.71-2.34S509,421,509,418.21V418c0-5.61,3.74-8.18,11-8.18a54.9,54.9,0,0,1,12,1.38v14a44.54,44.54,0,0,1-12.62,1.88m2.34-57.95a43.68,43.68,0,0,0-9.81.93,43.13,43.13,0,0,0-7.71,2.34,6.87,6.87,0,0,0-3.74,2.8,7.92,7.92,0,0,0-.94,4.21,5.83,5.83,0,0,0,.94,3.27,6.15,6.15,0,0,0,2.33,2.57,4.68,4.68,0,0,0,3,.94,25.29,25.29,0,0,0,3-.47c-.24,0,.23,0,1.4-.24a33,33,0,0,1,10.52-1.63c3.5,0,6.3.93,8.17,2.8,2.11,1.87,3,4.68,3,8.41v4a36.47,36.47,0,0,0-6.54-1.41,69.2,69.2,0,0,0-7.48-.46c-7.24,0-13.08,1.87-17.29,5.37-4.44,3.51-6.54,9.11-6.54,16.36v.7a18.21,18.21,0,0,0,3,10.75,18.59,18.59,0,0,0,8.17,7,29,29,0,0,0,12.15,2.33,74.74,74.74,0,0,0,12.85-.93,38.76,38.76,0,0,0,10.28-2.57,16.78,16.78,0,0,0,4.21-2.11,5.9,5.9,0,0,0,1.87-2.33A15.21,15.21,0,0,0,547,428V394.14a29.45,29.45,0,0,0-2.81-13.32,21,21,0,0,0-8.64-8.88,32.57,32.57,0,0,0-14-2.8M456,382.46a12.38,12.38,0,0,1,6.54,1.63,12.18,12.18,0,0,1,4.68,4.44,11.83,11.83,0,0,1,1.63,6.54v3h-25.7v-2.8a12.42,12.42,0,0,1,1.64-6.55,12.29,12.29,0,0,1,4.67-4.44,13.24,13.24,0,0,1,6.54-1.86m0-13.79a29.62,29.62,0,0,0-14.49,3.5A25.79,25.79,0,0,0,428.2,395v19a24.49,24.49,0,0,0,3.5,12.62,26.51,26.51,0,0,0,10,9.58,29.62,29.62,0,0,0,14.49,3.5,33.13,33.13,0,0,0,11-1.63,28.48,28.48,0,0,0,8.41-3.74,5.73,5.73,0,0,0,2.1-2.57,7.38,7.38,0,0,0,.7-3.27,8.12,8.12,0,0,0-1.87-5.14,7.06,7.06,0,0,0-5.14-2.34,3.5,3.5,0,0,0-1.63.23,11.28,11.28,0,0,1-1.64.71,12.31,12.31,0,0,1-1.63.7,26.77,26.77,0,0,1-10.28,2.56,14.34,14.34,0,0,1-7-1.86,11.84,11.84,0,0,1-4.68-4.91,12.79,12.79,0,0,1-1.63-6.31v-2.34H477a6.53,6.53,0,0,0,5.14-2.1,7.7,7.7,0,0,0,1.87-5.14v-7.24a27.12,27.12,0,0,0-3.5-13.32,26,26,0,0,0-10-10.05A32.23,32.23,0,0,0,456,368.67M390.84,410l1.4.47c2.57.93,4.44,1.86,5.84,2.33a10.35,10.35,0,0,1,3,2.34,5.7,5.7,0,0,1,1.17,3.5,5.58,5.58,0,0,1-2.1,4.68,8.25,8.25,0,0,1-5.38,1.63,22.13,22.13,0,0,1-5.84-.7c-1.63-.47-3.27-.93-5.14-1.63-.23,0-.7-.24-1.63-.47l-2.81-.7a11.87,11.87,0,0,0-2.57-.47,6.75,6.75,0,0,0-4.91,2.1,6.9,6.9,0,0,0-2.1,5.14c0,3.27,1.87,5.61,5.84,7.25a46.26,46.26,0,0,0,18.7,4.2,28.61,28.61,0,0,0,11.91-2.57,19.83,19.83,0,0,0,8.41-7.48,21.21,21.21,0,0,0,3-11.68,17.52,17.52,0,0,0-2.1-9.11,18.79,18.79,0,0,0-6.08-6.08,59.11,59.11,0,0,0-10.74-4.9c-3-1.17-5.15-2.11-6.78-2.81a7.5,7.5,0,0,1-3.27-2.57,4.68,4.68,0,0,1-.94-3,5.13,5.13,0,0,1,1.87-4.21,8.64,8.64,0,0,1,4.91-1.4,29.9,29.9,0,0,1,4.91.46,34.71,34.71,0,0,1,4.9,1.41,9.56,9.56,0,0,1,2.34.7,9.22,9.22,0,0,0,3.27.7,6.71,6.71,0,0,0,4.91-2.1,6.54,6.54,0,0,0,1.87-4.91,8.68,8.68,0,0,0-1.17-4,8.28,8.28,0,0,0-3.27-3,41.32,41.32,0,0,0-8.41-3A37.84,37.84,0,0,0,394.5,369a26.13,26.13,0,0,0-11.22,2.34,20.51,20.51,0,0,0-7.94,6.78,19,19,0,0,0-3,10.28c0,4.44.94,8.18,2.57,10.75a20.19,20.19,0,0,0,6.31,6.3,52.76,52.76,0,0,0,9.58,4.68" transform="translate(-44.76 -115.15)" fill="#fff"/><path d="M589,288.52a79.78,79.78,0,0,0,23.13-3.27v-25.7a106.44,106.44,0,0,0-22-2.57c-13.55,0-20.33,5.14-20.33,15.19v.23a15.5,15.5,0,0,0,4.91,11.92c3.27,2.8,7.94,4.2,14.25,4.2m4-106.31c10,0,18.7,1.87,25.71,5.84a38.3,38.3,0,0,1,15.89,16.36c3.73,7,5.37,15.19,5.37,24.53v61.92a18.57,18.57,0,0,1-.94,7,9.45,9.45,0,0,1-3.26,4.44,37.44,37.44,0,0,1-7.72,4c-5.14,2.11-11.44,3.51-18.92,4.68a160.64,160.64,0,0,1-24.3,1.63c-8.65,0-16.36-1.4-22.9-4.44a36.62,36.62,0,0,1-15.42-13.08c-3.74-5.61-5.38-12.39-5.38-20.1v-1c0-13.55,4-23.6,12.15-30.14,8.18-6.78,18.93-10.05,32.48-10.05a81.62,81.62,0,0,1,13.79.93c4,.7,8.18,1.41,12.38,2.58v-7c0-7-1.87-12.15-5.61-15.65s-8.88-5.37-15.42-5.37a61.52,61.52,0,0,0-19.63,3.27,14.35,14.35,0,0,0-2.8.7,34.75,34.75,0,0,1-5.84.7A10.65,10.65,0,0,1,557,212.1a21,21,0,0,1-4.2-4.91,14.62,14.62,0,0,1-1.64-6.07,15.59,15.59,0,0,1,1.87-7.71,14.7,14.7,0,0,1,6.78-5.38,70.21,70.21,0,0,1,14.25-4.2,105.69,105.69,0,0,1,19-1.62m-81.78,1.4a17.23,17.23,0,0,1,11,3.51c3,2.34,4.43,5.61,4.43,9.81a20.74,20.74,0,0,1-.7,5.14l-28.27,96c-1.4,4.44-3.5,7.72-6.54,10a17.3,17.3,0,0,1-10.28,3.27,18,18,0,0,1-10.52-3c-3-1.87-4.9-5.14-6.07-9.12L444.35,224l-19.86,75.23a15.65,15.65,0,0,1-5.84,9.12,18.37,18.37,0,0,1-20.57-.24,19.7,19.7,0,0,1-6.54-10l-28.27-96a20.74,20.74,0,0,1-.7-5.14c0-4.2,1.4-7.47,4.44-9.81a16.91,16.91,0,0,1,10.75-3.51c6.07,0,10,3.51,11.91,10.28l21,78.75,19.16-78.75a14.28,14.28,0,0,1,5.37-8.64,16.38,16.38,0,0,1,9.35-2.8,18.1,18.1,0,0,1,9.35,2.57c2.8,1.86,4.44,4.67,5.37,8.87l19.16,78.28,21-78.74c1.64-6.55,5.61-9.82,11.68-9.82m193.71,71.27-11,7.71v34.58a14.26,14.26,0,0,1-28.51,0V150.43a14.26,14.26,0,0,1,28.51,0v77.34L745.3,192a14.26,14.26,0,0,1,16.35,23.37h0L728.24,238.5l42.29,51.88a14.29,14.29,0,1,1-22.19,18ZM1031,288.56a79.78,79.78,0,0,0,23.13-3.27v-25.7a106.44,106.44,0,0,0-22-2.57c-13.55,0-20.33,5.14-20.33,15.19v.23a15.5,15.5,0,0,0,4.91,11.92c3.27,2.8,8.18,4.2,14.25,4.2m4-106.31c10,0,18.7,1.87,25.71,5.84a38.3,38.3,0,0,1,15.89,16.36c3.74,7,5.37,15.19,5.37,24.53V290.9a18.68,18.68,0,0,1-.93,7,8,8,0,0,1-3.28,4.21,37.36,37.36,0,0,1-7.71,4,92.8,92.8,0,0,1-18.92,4.67,157.64,157.64,0,0,1-24.07,1.64c-8.64,0-16.12-1.4-22.66-4.44s-11.69-7.24-15.19-12.85c-3.74-5.61-5.37-12.15-5.37-19.86v-.94c0-13.32,4-23.36,12.14-29.91s18.7-10,32.25-10a81.5,81.5,0,0,1,13.78.93,122.55,122.55,0,0,1,12.15,2.57v-7.24c0-7-1.86-12.15-5.6-15.66s-8.88-5.37-15.42-5.37a61.79,61.79,0,0,0-19.63,3.27,15.93,15.93,0,0,0-2.8.7,34.75,34.75,0,0,1-5.84.7,10.68,10.68,0,0,1-5.62-1.87,21.18,21.18,0,0,1-4.2-4.9,14.7,14.7,0,0,1-1.64-6.08,15.59,15.59,0,0,1,1.87-7.71,14.91,14.91,0,0,1,6.78-5.37,69.42,69.42,0,0,1,14.25-4.21,85,85,0,0,1,18.69-1.87M947.34,137c5.84,1.64,8.65,5.84,8.65,13.09V296c0,4.44-1.17,7.95-3.51,10.28s-5.84,3.51-10.28,3.51-7.94-1.17-10.51-3.51c-2.34-2.33-3.51-5.84-3.51-10.28V164h-5.6c-4.44,0-8-1.17-10.29-3.51s-3.5-5.84-3.5-10.28c0-9.35,4.67-13.79,13.79-13.79H942.2a12.93,12.93,0,0,1,5.14.47M835.49,288.52a79.78,79.78,0,0,0,23.13-3.27v-25.7a106.44,106.44,0,0,0-22-2.57c-13.55,0-20.33,5.14-20.33,15.19v.23a15.5,15.5,0,0,0,4.91,11.92c3.27,2.8,7.94,4.2,14.25,4.2m4-106.31c10,0,18.7,1.87,25.71,5.84a38.41,38.41,0,0,1,15.89,16.36c3.73,7,5.37,15.19,5.37,24.53v61.92a18.89,18.89,0,0,1-.94,7,9.4,9.4,0,0,1-3.27,4.44,37.36,37.36,0,0,1-7.71,4c-5.14,2.11-11.45,3.51-18.93,4.68a160.64,160.64,0,0,1-24.3,1.63c-8.64,0-16.35-1.4-22.89-4.44A36.69,36.69,0,0,1,793,295.07c-3.74-5.61-5.38-12.39-5.38-20.1v-1c0-13.55,4-23.6,12.15-30.14,8.18-6.78,18.93-10.05,32.48-10.05a81.62,81.62,0,0,1,13.79.93c4,.7,8.18,1.41,12.38,2.58v-7c0-7-1.87-12.15-5.61-15.65s-8.88-5.37-15.42-5.37a61.52,61.52,0,0,0-19.63,3.27,14.35,14.35,0,0,0-2.8.7,34.75,34.75,0,0,1-5.84.7,10.65,10.65,0,0,1-5.61-1.87,21.23,21.23,0,0,1-4.2-4.91,14.62,14.62,0,0,1-1.64-6.07,15.59,15.59,0,0,1,1.87-7.71,14.7,14.7,0,0,1,6.78-5.38,70.21,70.21,0,0,1,14.25-4.2,103.47,103.47,0,0,1,18.92-1.64" transform="translate(-44.76 -115.15)" fill="#fff"/></svg>