<svg id="Layer_1" data-name="Layer 1" xmlns="http://www.w3.org/2000/svg" viewBox="0 0 1037.25 350.2"><path d="M11.5,129.5c14.3,2.8,24.5,80.8,58.9,75.2,27.1-1.4,44.2-44.4,48.4-57.2,0-.2,0-.2.2-.5,1.2-3,4.2-13.8,8.4-13.8s5.8,5.4,8.6,13.8c4.2,12.9,21.5,55.6,48.6,57.2,34.4,5.8,44.4-72.9,58.6-75.7,5.6,0,12.8,6.6,11.2,18.9-8.6,67.3-105.6,184.4-127.1,184.4S10.3,222,.2,147.4c-1.6-12.3,5.6-18,11.3-17.9" transform="translate(0.03)" fill="#fff"/><path d="M126.2,0C185.1,0,234.8,40,250,94.6c-15.4.9-26.6,5.1-33.6,12.9-7.5,8.2-16.6,27.3-27.1,57.5-1.4,1.9-2.8,2.8-4.2,2.8-2.1,0-3-1.2-4.2-2.8-.9-.9-10.3-25.9-20.3-46-6.8-11.7-11.9-18.2-16.6-21.5-5.8-4.4-11.2-6.8-16.4-6.8a26.42,26.42,0,0,0-16.1,4.9c-5.8,3.7-12.4,11.2-19.6,23.8-10.1,20.1-19.4,45.1-20.1,46-1.2,1.6-1.9,2.8-4,2.8-1.4,0-2.8-.9-4.2-2.8C53.1,135.3,44,116.1,36.5,108c-7-7.7-18.2-11.9-33.9-12.9C17.3,40.2,67.1,0,126.2,0" transform="translate(0.03)" fill="#fff"/><path d="M83.2,303.8A75.84,75.84,0,0,0,90,312c-11.4,3-18.7,7.2-18.7,11.9,0,8.9,25.2,16.1,56.1,16.1,31.1,0,56.1-7.2,56.1-16.1,0-5.1-8-9.6-20.6-12.4,3.5-3,6.3-5.9,8.4-8,15.2,4.9,25,12.1,25,20.3,0,14.5-30.9,26.4-68.9,26.4S58.5,338.5,58.5,324c0-8.1,9.5-15.3,24.7-20.2" transform="translate(0.03)" fill="#fff"/><path d="M544.2,238.5a78.69,78.69,0,0,0,23.1-3.3V209.5a108.4,108.4,0,0,0-22-2.6c-13.5,0-20.3,5.1-20.3,15.2v.2a15.35,15.35,0,0,0,4.9,11.9c3.3,2.9,8,4.3,14.3,4.3m4-106.3c10,0,18.7,1.9,25.7,5.8a38.15,38.15,0,0,1,15.9,16.4c3.7,7,5.4,15.2,5.4,24.5v61.9a20.75,20.75,0,0,1-.9,7,9.06,9.06,0,0,1-3.3,4.4,37.54,37.54,0,0,1-7.7,4c-5.1,2.1-11.4,3.5-18.9,4.7a151.87,151.87,0,0,1-24.3,1.6c-8.7,0-16.4-1.4-22.9-4.4A36.31,36.31,0,0,1,501.8,245c-3.7-5.6-5.4-12.4-5.4-20.1v-1c0-13.5,4-23.6,12.2-30.1,8.2-6.8,18.9-10.1,32.5-10.1a80,80,0,0,1,13.8.9,119.4,119.4,0,0,1,12.4,2.6v-7c0-7-1.9-12.1-5.6-15.6s-8.9-5.4-15.4-5.4a59.31,59.31,0,0,0-19.6,3.3,12.76,12.76,0,0,0-2.8.7,38.25,38.25,0,0,1-5.8.7,10.46,10.46,0,0,1-5.6-1.9,21.81,21.81,0,0,1-4.2-4.9,14.56,14.56,0,0,1-1.6-6.1,14.92,14.92,0,0,1,1.9-7.7,15.08,15.08,0,0,1,6.8-5.4,72.16,72.16,0,0,1,14.2-4.2,100.87,100.87,0,0,1,19-1.6m-82.1,1.5a17.41,17.41,0,0,1,11,3.5c3,2.3,4.4,5.6,4.4,9.8a21.63,21.63,0,0,1-.7,5.1l-28.3,96c-1.4,4.4-3.5,7.7-6.5,10a17.32,17.32,0,0,1-10.3,3.3,17.86,17.86,0,0,1-10.5-3c-3-1.9-4.9-5.1-6.1-9.1l-20-75.2-19.9,75.2a15.86,15.86,0,0,1-5.8,9.1,18.6,18.6,0,0,1-20.6-.2,19.67,19.67,0,0,1-6.5-10l-28.3-96a22.36,22.36,0,0,1-.7-5.1c0-4.2,1.4-7.5,4.4-9.8a16.86,16.86,0,0,1,10.8-3.5c6.1,0,10,3.5,11.9,10.3l21,78.8L385,144a14.38,14.38,0,0,1,5.4-8.6,16.47,16.47,0,0,1,9.4-2.8,18.5,18.5,0,0,1,9.4,2.6c2.8,1.9,4.4,4.7,5.4,8.9l19.2,78.3,21-78.7c1.6-6.6,5.6-9.8,11.7-9.8m193.6,71-11,7.7v34.6a14.25,14.25,0,0,1-28.5,0V100.4a14.25,14.25,0,0,1,28.5,0v77.3l51.5-35.8A14.29,14.29,0,0,1,717,165.3h0l-33.4,23.1,42.3,51.9a14.26,14.26,0,1,1-21.7,18.5c-.1-.2-.3-.3-.4-.5Zm326.1,33.7a78.69,78.69,0,0,0,23.1-3.3V209.6a108.4,108.4,0,0,0-22-2.6c-13.5,0-20.3,5.1-20.3,15.2v.2a15.35,15.35,0,0,0,4.9,11.9c3.3,2.9,8.2,4.3,14.3,4.3m4-106.4c10,0,18.7,1.9,25.7,5.8a38.15,38.15,0,0,1,15.9,16.4c3.7,7,5.4,15.2,5.4,24.5v61.9a20.75,20.75,0,0,1-.9,7,8,8,0,0,1-3.3,4.2,37.54,37.54,0,0,1-7.7,4,95,95,0,0,1-18.9,4.7,149.39,149.39,0,0,1-24.1,1.6c-8.6,0-16.1-1.4-22.7-4.4A33.34,33.34,0,0,1,944.4,245c-3.7-5.6-5.4-12.1-5.4-19.9v-.9c0-13.3,4-23.4,12.1-29.9s18.7-10,32.2-10a80,80,0,0,1,13.8.9c4.1.7,8.1,1.5,12.2,2.6v-7.2c0-7-1.9-12.1-5.6-15.7s-8.9-5.4-15.4-5.4a59.31,59.31,0,0,0-19.6,3.3,12.76,12.76,0,0,0-2.8.7,38.25,38.25,0,0,1-5.8.7,10.18,10.18,0,0,1-5.6-1.9,21.81,21.81,0,0,1-4.2-4.9,14.56,14.56,0,0,1-1.6-6.1,14.92,14.92,0,0,1,1.9-7.7,15.08,15.08,0,0,1,6.8-5.4,72.16,72.16,0,0,1,14.2-4.2,104.68,104.68,0,0,1,18.6-1.8M902.6,87c5.8,1.6,8.7,5.8,8.7,13.1V246c0,4.4-1.2,8-3.5,10.3s-5.8,3.5-10.3,3.5-7.9-1.2-10.5-3.5c-2.3-2.3-3.5-5.8-3.5-10.3V114h-5.6c-4.4,0-8-1.2-10.3-3.5s-3.5-5.8-3.5-10.3c0-9.4,4.7-13.8,13.8-13.8h19.6a12.52,12.52,0,0,1,5.1.5M790.7,238.5a78.69,78.69,0,0,0,23.1-3.3V209.5a108.4,108.4,0,0,0-22-2.6c-13.5,0-20.3,5.1-20.3,15.2v.2a15.35,15.35,0,0,0,4.9,11.9c3.3,2.9,8,4.3,14.3,4.3m4-106.3c10,0,18.7,1.9,25.7,5.8a38.15,38.15,0,0,1,15.9,16.4c3.7,7,5.4,15.2,5.4,24.5v61.9a20.75,20.75,0,0,1-.9,7,9.06,9.06,0,0,1-3.3,4.4,37.54,37.54,0,0,1-7.7,4c-5.1,2.1-11.5,3.5-18.9,4.7a151.87,151.87,0,0,1-24.3,1.6c-8.6,0-16.3-1.4-22.9-4.4A36.31,36.31,0,0,1,748.3,245c-3.7-5.6-5.4-12.4-5.4-20.1v-1c0-13.5,4-23.6,12.2-30.1,8.2-6.8,18.9-10.1,32.5-10.1a80,80,0,0,1,13.8.9,119.4,119.4,0,0,1,12.4,2.6v-7c0-7-1.9-12.1-5.6-15.6s-8.9-5.4-15.4-5.4a59.31,59.31,0,0,0-19.6,3.3,12.76,12.76,0,0,0-2.8.7,38.25,38.25,0,0,1-5.8.7A10.18,10.18,0,0,1,759,162a21.81,21.81,0,0,1-4.2-4.9,14.56,14.56,0,0,1-1.6-6.1,14.92,14.92,0,0,1,1.9-7.7,15.08,15.08,0,0,1,6.8-5.4,72.16,72.16,0,0,1,14.2-4.2,103.79,103.79,0,0,1,18.6-1.5" transform="translate(0.03)" fill="#fff"/></svg>